<?xml version="1.0" encoding="utf-8"?>
<!-- Generator: Adobe Illustrator 19.0.0, SVG Export Plug-In . SVG Version: 6.00 Build 0)  -->
<svg version="1.1" id="Layer_1" xmlns="http://www.w3.org/2000/svg" xmlns:xlink="http://www.w3.org/1999/xlink" x="0px" y="0px"
	 viewBox="0 0 1000 250" style="enable-background:new 0 0 1000 250;" xml:space="preserve">
<style type="text/css">
	.st0{fill:#4285F4;}
	.st1{fill:#7D7D7D;}
</style>
<path id="XMLID_3_" class="st0" d="M155.4,178.5c-7.4,6.3-15.6,11.2-24.8,14.6c-9.1,3.4-18.6,5.1-28.4,5.1c-7.5,0-14.8-1-21.7-2.9
	c-7-2-13.5-4.7-19.6-8.3c-6.1-3.6-11.6-7.9-16.6-12.9c-5-5-9.3-10.6-12.9-16.6c-3.6-6.1-6.3-12.6-8.3-19.6c-2-7-2.9-14.2-2.9-21.7
	s1-14.8,2.9-21.8c2-7,4.7-13.5,8.3-19.6c3.6-6.1,7.9-11.6,12.9-16.6c5-5,10.6-9.3,16.6-12.9c6.1-3.6,12.6-6.3,19.6-8.3
	c7-2,14.2-2.9,21.7-2.9c9.8,0,19.3,1.7,28.4,5c9.1,3.4,17.4,8.2,24.8,14.7l-16.8,27.7c-4.6-5-10.1-8.9-16.5-11.6
	c-6.3-2.7-13-4-19.9-4c-7,0-13.6,1.3-19.7,4c-6.1,2.7-11.5,6.2-16,10.8c-4.6,4.5-8.2,9.9-10.8,16c-2.7,6.2-4,12.7-4,19.6
	c0,6.9,1.3,13.4,4,19.5c2.7,6.1,6.3,11.4,10.8,16c4.6,4.6,9.9,8.2,16,10.8c6.1,2.7,12.7,4,19.7,4c6.9,0,13.6-1.3,19.9-4
	c6.3-2.7,11.8-6.5,16.5-11.6L155.4,178.5z"/>
<path id="XMLID_5_" class="st0" d="M280.9,134.5c0,8.8-1.6,17.1-4.8,24.7c-3.2,7.6-7.5,14.2-12.9,19.8c-5.5,5.6-11.9,10-19.2,13.2
	c-7.3,3.2-15.2,4.8-23.6,4.8c-8.3,0-16.2-1.6-23.5-4.8c-7.3-3.2-13.8-7.6-19.2-13.2c-5.5-5.6-9.8-12.2-13-19.8
	c-3.2-7.6-4.8-15.9-4.8-24.7c0-9,1.6-17.3,4.8-25c3.2-7.7,7.5-14.3,13-19.9c5.5-5.6,11.9-9.9,19.2-13.1c7.3-3.2,15.2-4.8,23.5-4.8
	c8.4,0,16.3,1.5,23.6,4.5c7.3,3,13.7,7.2,19.2,12.7c5.5,5.5,9.8,12.1,12.9,19.8C279.3,116.5,280.9,125,280.9,134.5z M250.5,134.5
	c0-4.9-0.8-9.3-2.4-13.2c-1.6-3.9-3.7-7.3-6.5-10.2c-2.7-2.8-5.9-5-9.6-6.5c-3.7-1.5-7.5-2.3-11.7-2.3c-4.1,0-8,0.8-11.7,2.3
	c-3.7,1.5-6.8,3.7-9.5,6.5c-2.7,2.8-4.8,6.2-6.4,10.2c-1.5,3.9-2.3,8.4-2.3,13.2c0,4.6,0.8,8.8,2.3,12.7c1.5,3.9,3.7,7.3,6.4,10.2
	c2.7,2.9,5.9,5.1,9.5,6.8c3.7,1.7,7.5,2.5,11.7,2.5c4.1,0,8-0.8,11.7-2.3c3.7-1.5,6.8-3.7,9.6-6.5c2.7-2.8,4.9-6.2,6.5-10.2
	C249.7,143.7,250.5,139.3,250.5,134.5z"/>
<path id="XMLID_8_" class="st0" d="M327.8,194.8h-30.2V76.3h7.3l10,11.5c4.9-4.4,10.4-7.8,16.5-10.2c6.2-2.4,12.6-3.6,19.3-3.6
	c7.2,0,14,1.4,20.5,4.1c6.4,2.8,12,6.6,16.8,11.4c4.8,4.8,8.6,10.5,11.3,16.9c2.8,6.5,4.1,13.3,4.1,20.6v67.7h-30.2v-67.7
	c0-3.1-0.6-6-1.8-8.8s-2.8-5.2-4.9-7.2c-2.1-2.1-4.5-3.7-7.2-4.9c-2.7-1.2-5.6-1.8-8.7-1.8c-3.2,0-6.2,0.6-9,1.8
	c-2.8,1.2-5.2,2.8-7.3,4.9c-2.1,2.1-3.7,4.5-4.9,7.2c-1.2,2.8-1.8,5.7-1.8,8.8V194.8z"/>
<path id="XMLID_10_" class="st0" d="M461.5,194.8h-30.2v-88.4h-14.7V76.3h14.7v-5.6c0-7.3,1.4-14.2,4.1-20.6
	c2.8-6.4,6.6-12,11.4-16.8s10.5-8.5,16.9-11.3s13.3-4.1,20.6-4.1H507V48h-22.7c-3.2,0-6.3,0.6-9,1.7c-2.8,1.1-5.2,2.7-7.2,4.8
	c-2,2-3.6,4.4-4.8,7.2s-1.8,5.8-1.8,9v5.6h37.1v30.1h-37.1V194.8z"/>
<path id="XMLID_12_" class="st0" d="M557.8,165.8c1.2,0.4,2.4,0.6,3.5,0.7c1.2,0.1,2.4,0.2,3.5,0.2c2.9,0,5.8-0.4,8.5-1.2
	c2.7-0.8,5.3-2,7.7-3.5c2.4-1.5,4.5-3.4,6.4-5.5c1.9-2.2,3.4-4.6,4.6-7.2l22.1,22.2c-2.8,4-6,7.6-9.7,10.7
	c-3.6,3.2-7.6,5.9-11.8,8.1c-4.2,2.2-8.7,3.9-13.4,5c-4.7,1.1-9.5,1.7-14.4,1.7c-8.3,0-16.2-1.5-23.5-4.6
	c-7.3-3.1-13.8-7.4-19.2-12.9c-5.5-5.5-9.8-12.1-13-19.7s-4.8-16-4.8-25.2c0-9.4,1.6-17.9,4.8-25.7s7.5-14.3,13-19.8
	c5.5-5.5,11.9-9.7,19.2-12.7c7.3-3,15.2-4.5,23.5-4.5c4.9,0,9.8,0.6,14.5,1.8c4.7,1.2,9.2,2.9,13.4,5.1s8.2,4.9,11.9,8.1
	c3.7,3.2,6.9,6.8,9.7,10.8L557.8,165.8z M573.2,103.5c-1.4-0.5-2.8-0.8-4.1-1c-1.4-0.1-2.8-0.2-4.3-0.2c-4.1,0-8,0.8-11.7,2.3
	c-3.6,1.5-6.8,3.7-9.5,6.5c-2.7,2.8-4.8,6.2-6.4,10.1c-1.5,3.9-2.3,8.4-2.3,13.3c0,1.1,0.1,2.4,0.2,3.8c0.1,1.4,0.3,2.8,0.5,4.3
	c0.3,1.4,0.6,2.8,0.9,4.1c0.4,1.3,0.8,2.5,1.4,3.5L573.2,103.5z"/>
<path id="XMLID_15_" class="st0" d="M659.7,194.8h-30.2V76.3h7.3l10,14c4.9-4.4,10.4-7.8,16.6-10.2c6.2-2.4,12.6-3.6,19.2-3.6h26.7
	v30.1h-26.7c-3.2,0-6.2,0.6-9,1.8c-2.8,1.2-5.2,2.8-7.3,4.9c-2.1,2.1-3.7,4.5-4.9,7.3c-1.2,2.8-1.8,5.8-1.8,9V194.8z"/>
<path id="XMLID_17_" class="st1" d="M761.7,194.8h-30.2v-88.4h-14.7V76.3h14.7v-5.6c0-7.3,1.4-14.2,4.1-20.6
	c2.8-6.4,6.6-12,11.4-16.8s10.5-8.5,16.9-11.3s13.3-4.1,20.6-4.1h22.7V48h-22.7c-3.2,0-6.3,0.6-9,1.7c-2.8,1.1-5.2,2.7-7.2,4.8
	c-2,2-3.6,4.4-4.8,7.2s-1.8,5.8-1.8,9v5.6h37.1v30.1h-37.1V194.8z"/>
<path id="XMLID_19_" class="st1" d="M843.5,194.8H813V29.2h30.4V194.8z"/>
<path id="XMLID_21_" class="st1" d="M895,239.9v-30.4l16.8,0.2c2.9,0,5.8-0.5,8.5-1.4c2.7-1,5.3-2.3,7.6-4c2.3-1.7,4.4-3.7,6.1-6
	s3.2-4.8,4.3-7.6c-3.3,1.4-6.7,2.8-10.1,4.2c-3.4,1.4-6.9,2.1-10.3,2.1c-7.3,0-14.2-1.3-20.6-3.9c-6.4-2.6-12-6.2-16.9-11
	c-4.8-4.8-8.6-10.5-11.4-17.4c-2.8-6.8-4.1-14.5-4.1-23V76.3H895v65.5c0,4.2,0.6,7.9,1.8,11c1.2,3.1,2.9,5.8,4.9,7.9
	c2.1,2.1,4.5,3.7,7.2,4.7c2.8,1,5.7,1.5,8.9,1.5c3.1,0,6-0.7,8.8-2.2c2.8-1.4,5.2-3.3,7.2-5.7c2.1-2.4,3.7-5,4.9-8
	c1.2-3,1.8-6.1,1.8-9.2V76.3H971v103.5c-0.1,8.3-1.7,16.1-4.9,23.4c-3.2,7.3-7.5,13.7-13,19.1c-5.5,5.5-11.9,9.8-19.2,12.9
	c-7.3,3.2-15.1,4.8-23.4,4.8L895,239.9z"/>
</svg>
